{"asset":{"generator":"Modov11.2","version":"2.0"},"scene":0,"scenes":[{"nodes":[0,1,2]}],"nodes":[{"name":"Line015","mesh":0},{"name":"Camera","matrix":[1.0,0.0,0.0,0.0,0.0,0.9961947202682495,-0.08715573698282242,0.0,0.0,0.08715573698282242,0.9961947202682495,0.0,0.0,0.75,4.0,1.0],"camera":0},{"name":"Texture Group"}],"meshes":[{"primitives":[{"indices":1,"mode":4,"material":1,"attributes":{"POSITION":0,"NORMAL":2,"TEXCOORD_0":3}},{"indices":5,"mode":4,"material":2,"attributes":{"POSITION":4,"NORMAL":6,"TEXCOORD_0":7}},{"indices":9,"mode":4,"material":3,"attributes":{"POSITION":8,"NORMAL":10,"TEXCOORD_0":11}}]}],"buffers":[{"byteLength":19411824,"uri":"3SHAFA.bin"}],"bufferViews":[{"buffer":0,"byteLength":1585596},{"buffer":0,"byteLength":2908416,"byteOffset":1585596},{"buffer":0,"byteLength":1585596,"byteOffset":4494012},{"buffer":0,"byteLength":1057064,"byteOffset":6079608},{"buffer":0,"byteLength":205200,"byteOffset":7136672},{"buffer":0,"byteLength":410112,"byteOffset":7341872},{"buffer":0,"byteLength":205200,"byteOffset":7751984},{"buffer":0,"byteLength":136800,"byteOffset":7957184},{"buffer":0,"byteLength":2529996,"byteOffset":8093984},{"buffer":0,"byteLength":4571184,"byteOffset":10623980},{"buffer":0,"byteLength":2529996,"byteOffset":15195164},{"buffer":0,"byteLength":1686664,"byteOffset":17725160}],"accessors":[{"bufferView":0,"type":"VEC3","componentType":5126,"count":132133,"min":[-1130.4407958984376,-478.40631103515627,-420.3581848144531],"max":[1130.4407958984376,366.4643859863281,420.3581848144531]},{"bufferView":1,"type":"SCALAR","componentType":5125,"count":727104},{"bufferView":2,"type":"VEC3","componentType":5126,"count":132133},{"bufferView":3,"type":"VEC2","componentType":5126,"count":132133},{"bufferView":4,"type":"VEC3","componentType":5126,"count":17100,"min":[-1048.5013427734376,-93.41609954833985,-386.6221008300781],"max":[1035.5084228515626,478.4064025878906,86.46109771728516]},{"bufferView":5,"type":"SCALAR","componentType":5125,"count":102528},{"bufferView":6,"type":"VEC3","componentType":5126,"count":17100},{"bufferView":7,"type":"VEC2","componentType":5126,"count":17100},{"bufferView":8,"type":"VEC3","componentType":5126,"count":210833,"min":[-1101.421875,-213.4069061279297,-392.781005859375],"max":[1100.5965576171876,307.0429992675781,383.9148864746094]},{"bufferView":9,"type":"SCALAR","componentType":5125,"count":1142796},{"bufferView":10,"type":"VEC3","componentType":5126,"count":210833},{"bufferView":11,"type":"VEC2","componentType":5126,"count":210833}],"materials":[{"pbrMetallicRoughness":{"metallicFactor":0.5,"roughnessFactor":0.5}},{"name":"wood","emissiveFactor":[0.0,0.0,0.0],"alphaMode":"OPAQUE","doubleSided":false,"pbrMetallicRoughness":{"baseColorFactor":[1.0,1.0,1.0,1.0],"metallicFactor":1.0,"roughnessFactor":1.0,"baseColorTexture":{"index":0,"texCoord":0}}},{"name":"Default","emissiveFactor":[0.0,0.0,0.0],"alphaMode":"OPAQUE","doubleSided":false,"pbrMetallicRoughness":{"baseColorFactor":[1.0,1.0,1.0,1.0],"metallicFactor":1.0,"roughnessFactor":1.0,"baseColorTexture":{"index":1,"texCoord":0}}},{"name":"pige","emissiveFactor":[0.0,0.0,0.0],"alphaMode":"OPAQUE","doubleSided":false,"pbrMetallicRoughness":{"baseColorFactor":[1.0,1.0,1.0,1.0],"metallicFactor":1.0,"roughnessFactor":1.0,"baseColorTexture":{"index":2,"texCoord":0}}}],"textures":[{"name":"005 ","sampler":0,"source":0},{"name":"sd ","sampler":1,"source":1},{"name":"sdsds ","sampler":2,"source":2}],"images":[{"mimeType":"image/jpeg","uri":"005.jpg"},{"mimeType":"image/jpeg","uri":"sd.jpg"},{"mimeType":"image/jpeg","uri":"sdsds.jpg"}],"samplers":[{},{},{}],"cameras":[{"name":"Camera","type":"perspective","perspective":{"znear":0.01,"yfov":0.8726}}]}