{
  "accessors": [
    {
      "bufferView": 2,
      "componentType": 5126,
      "count": 34,
      "max": [
        4.7681903839111328,
        -2039.0565185546875,
        25.320564270019531
      ],
      "min": [
        -5.3648052215576172,
        -2308.884033203125,
        24.779323577880859
      ],
      "type": "VEC3"
    },
    {
      "bufferView": 2,
      "byteOffset": 408,
      "componentType": 5126,
      "count": 34,
      "max": [
        0.19907277822494507,
        0.0057644727639853954,
        0.99996942281723022
      ],
      "min": [
        -0.0073779532685875893,
        0.0025154210161417723,
        0.9799727201461792
      ],
      "type": "VEC3"
    },
    {
      "bufferView": 1,
      "componentType": 5126,
      "count": 34,
      "max": [
        1.0000002384185791,
        1
      ],
      "min": [
        0,
        0.9375
      ],
      "type": "VEC2"
    },
    {
      "bufferView": 0,
      "componentType": 5125,
      "count": 48,
      "max": [
        33
      ],
      "min": [
        0
      ],
      "type": "SCALAR"
    },
    {
      "bufferView": 2,
      "byteOffset": 816,
      "componentType": 5126,
      "count": 14814,
      "max": [
        601.20556640625,
        209.53388977050781,
        41.552242279052734
      ],
      "min": [
        -601.20556640625,
        -209.53390502929688,
        -41.552230834960938
      ],
      "type": "VEC3"
    },
    {
      "bufferView": 2,
      "byteOffset": 178584,
      "componentType": 5126,
      "count": 14814,
      "max": [
        0.99999892711639404,
        0.99999922513961792,
        0.99999964237213135
      ],
      "min": [
        -0.99999886751174927,
        -0.99999886751174927,
        -0.99999982118606567
      ],
      "type": "VEC3"
    },
    {
      "bufferView": 0,
      "byteOffset": 192,
      "componentType": 5125,
      "count": 88896,
      "max": [
        14813
      ],
      "min": [
        0
      ],
      "type": "SCALAR"
    },
    {
      "bufferView": 2,
      "byteOffset": 356352,
      "componentType": 5126,
      "count": 5883,
      "max": [
        14.126319885253906,
        -64.511100769042969,
        19.230783462524414
      ],
      "min": [
        5.8544845581054688,
        -69.830886840820312,
        15.68614387512207
      ],
      "type": "VEC3"
    },
    {
      "bufferView": 2,
      "byteOffset": 426948,
      "componentType": 5126,
      "count": 5883,
      "max": [
        0.99627500772476196,
        0.99973934888839722,
        0.99998223781585693
      ],
      "min": [
        -0.99620109796524048,
        -0.99773752689361572,
        -0.99998217821121216
      ],
      "type": "VEC3"
    },
    {
      "bufferView": 1,
      "byteOffset": 272,
      "componentType": 5126,
      "count": 5883,
      "max": [
        10.990897178649902,
        4.879277229309082
      ],
      "min": [
        -4.5861110687255859,
        -1.8451215028762817
      ],
      "type": "VEC2"
    },
    {
      "bufferView": 0,
      "byteOffset": 355776,
      "componentType": 5125,
      "count": 6744,
      "max": [
        5882
      ],
      "min": [
        0
      ],
      "type": "SCALAR"
    },
    {
      "bufferView": 2,
      "byteOffset": 497544,
      "componentType": 5126,
      "count": 5883,
      "max": [
        14.126319885253906,
        -64.511100769042969,
        19.230783462524414
      ],
      "min": [
        5.8544845581054688,
        -69.830886840820312,
        15.68614387512207
      ],
      "type": "VEC3"
    },
    {
      "bufferView": 2,
      "byteOffset": 568140,
      "componentType": 5126,
      "count": 5883,
      "max": [
        0.99627500772476196,
        0.99973934888839722,
        0.99998223781585693
      ],
      "min": [
        -0.99620109796524048,
        -0.99773752689361572,
        -0.99998217821121216
      ],
      "type": "VEC3"
    },
    {
      "bufferView": 1,
      "byteOffset": 47336,
      "componentType": 5126,
      "count": 5883,
      "max": [
        10.990897178649902,
        4.879277229309082
      ],
      "min": [
        -4.5861110687255859,
        -1.8451215028762817
      ],
      "type": "VEC2"
    },
    {
      "bufferView": 0,
      "byteOffset": 382752,
      "componentType": 5125,
      "count": 6744,
      "max": [
        5882
      ],
      "min": [
        0
      ],
      "type": "SCALAR"
    },
    {
      "bufferView": 2,
      "byteOffset": 638736,
      "componentType": 5126,
      "count": 2361,
      "max": [
        95.567543029785156,
        19.09843635559082,
        75.358734130859375
      ],
      "min": [
        -2.5924606323242188,
        4.6661872863769531,
        69.335922241210938
      ],
      "type": "VEC3"
    },
    {
      "bufferView": 2,
      "byteOffset": 667068,
      "componentType": 5126,
      "count": 2361,
      "max": [
        0.31104999780654907,
        0.99909251928329468,
        0.99999791383743286
      ],
      "min": [
        -0.99981003999710083,
        -0.99999892711639404,
        -0.99999791383743286
      ],
      "type": "VEC3"
    },
    {
      "bufferView": 0,
      "byteOffset": 409728,
      "componentType": 5125,
      "count": 14016,
      "max": [
        2360
      ],
      "min": [
        0
      ],
      "type": "SCALAR"
    },
    {
      "bufferView": 2,
      "byteOffset": 695400,
      "componentType": 5126,
      "count": 2461,
      "max": [
        139.1309814453125,
        19.098434448242188,
        75.358741760253906
      ],
      "min": [
        -2.5924530029296875,
        -20.928127288818359,
        63.415542602539062
      ],
      "type": "VEC3"
    },
    {
      "bufferView": 2,
      "byteOffset": 724932,
      "componentType": 5126,
      "count": 2461,
      "max": [
        0.7267645001411438,
        0.99909257888793945,
        0.99999785423278809
      ],
      "min": [
        -0.99981009960174561,
        -0.99999892711639404,
        -0.99999791383743286
      ],
      "type": "VEC3"
    },
    {
      "bufferView": 0,
      "byteOffset": 465792,
      "componentType": 5125,
      "count": 14316,
      "max": [
        2460
      ],
      "min": [
        0
      ],
      "type": "SCALAR"
    }
  ],
  "asset": {
    "extras": {
      "author": "kemalceyhunacar (https://sketchfab.com/kemalceyhunacar)",
      "license": "CC-BY-4.0 (http://creativecommons.org/licenses/by/4.0/)",
      "source": "https://sketchfab.com/3d-models/c-deneme-95da985c92914e3c92aeb4c018892ca6",
      "title": "C Deneme"
    },
    "generator": "Sketchfab-7.35.0",
    "version": "2.0"
  },
  "bufferViews": [
    {
      "buffer": 0,
      "byteLength": 523056,
      "byteOffset": 0,
      "name": "floatBufferViews",
      "target": 34963
    },
    {
      "buffer": 0,
      "byteLength": 94400,
      "byteOffset": 523056,
      "byteStride": 8,
      "name": "floatBufferViews",
      "target": 34962
    },
    {
      "buffer": 0,
      "byteLength": 754464,
      "byteOffset": 617456,
      "byteStride": 12,
      "name": "floatBufferViews",
      "target": 34962
    }
  ],
  "buffers": [
    {
      "byteLength": 1371920,
      "uri": "scene.bin"
    }
  ],
  "materials": [
    {
      "doubleSided": true,
      "emissiveFactor": [
        0,
        0,
        0
      ],
      "name": "lambert1",
      "pbrMetallicRoughness": {
        "baseColorFactor": [
          0.5,
          0.5,
          0.5,
          1
        ],
        "metallicFactor": 0,
        "roughnessFactor": 0.59999999999999998
      }
    },
    {
      "doubleSided": true,
      "emissiveFactor": [
        0,
        0,
        0
      ],
      "name": "08_-_Default",
      "pbrMetallicRoughness": {
        "baseColorFactor": [
          0.019607800000000002,
          0.011764699999999999,
          0.0039215700000000001,
          1
        ],
        "metallicFactor": 0,
        "roughnessFactor": 1
      }
    },
    {
      "doubleSided": true,
      "emissiveFactor": [
        0,
        0,
        0
      ],
      "name": "09_-_Default",
      "pbrMetallicRoughness": {
        "baseColorFactor": [
          0.58823499999999995,
          0.58823499999999995,
          0.58823499999999995,
          1
        ],
        "metallicFactor": 0,
        "roughnessFactor": 0
      }
    }
  ],
  "meshes": [
    {
      "name": "Object009_lambert1_0",
      "primitives": [
        {
          "attributes": {
            "NORMAL": 1,
            "POSITION": 0,
            "TEXCOORD_0": 2
          },
          "indices": 3,
          "material": 0,
          "mode": 4
        }
      ]
    },
    {
      "name": "Line001_08 - Default_0",
      "primitives": [
        {
          "attributes": {
            "NORMAL": 5,
            "POSITION": 4
          },
          "indices": 6,
          "material": 1,
          "mode": 4
        }
      ]
    },
    {
      "name": "hinges001_09 - Default_0",
      "primitives": [
        {
          "attributes": {
            "NORMAL": 8,
            "POSITION": 7,
            "TEXCOORD_0": 9
          },
          "indices": 10,
          "material": 2,
          "mode": 4
        }
      ]
    },
    {
      "name": "hinges_09 - Default_0",
      "primitives": [
        {
          "attributes": {
            "NORMAL": 12,
            "POSITION": 11,
            "TEXCOORD_0": 13
          },
          "indices": 14,
          "material": 2,
          "mode": 4
        }
      ]
    },
    {
      "name": "Line002_08 - Default_0",
      "primitives": [
        {
          "attributes": {
            "NORMAL": 16,
            "POSITION": 15
          },
          "indices": 17,
          "material": 1,
          "mode": 4
        }
      ]
    },
    {
      "name": "Line003_08 - Default_0",
      "primitives": [
        {
          "attributes": {
            "NORMAL": 19,
            "POSITION": 18
          },
          "indices": 20,
          "material": 1,
          "mode": 4
        }
      ]
    }
  ],
  "nodes": [
    {
      "children": [
        1
      ],
      "name": "RootNode (gltf orientation matrix)",
      "rotation": [
        -0.70710678118654746,
        -0,
        -0,
        0.70710678118654757
      ]
    },
    {
      "children": [
        2
      ],
      "name": "RootNode (model correction matrix)"
    },
    {
      "children": [
        3
      ],
      "matrix": [
        1,
        0,
        0,
        0,
        0,
        0,
        1,
        0,
        0,
        -1,
        0,
        0,
        0,
        0,
        0,
        1
      ],
      "name": "151070e4e18f41238fe5c5d9b65cf96c.fbx"
    },
    {
      "children": [
        4
      ],
      "name": "RootNode"
    },
    {
      "children": [
        5,
        7,
        10,
        15
      ],
      "matrix": [
        0,
        0,
        0.085000000894069672,
        0,
        0.085000000894069672,
        0,
        0,
        0,
        0,
        0.085000000894069672,
        0,
        0,
        0,
        2.6705102920532227,
        0.54160797595977783,
        1
      ],
      "name": "074"
    },
    {
      "children": [
        6
      ],
      "matrix": [
        -1.6292068516499114e-07,
        -0.99999999999998679,
        -5.2939559203393771e-23,
        0,
        -0.0016412350814786704,
        2.6739114417358482e-10,
        -9.2608321043329447e-10,
        0,
        5.6425994111627697e-07,
        -9.1929616183916886e-14,
        -0.99999999999984079,
        0,
        -74.731719970703125,
        -38.908302307128906,
        1.2668266296386719,
        1
      ],
      "name": "Object009"
    },
    {
      "mesh": 0,
      "name": "Object009_lambert1_0"
    },
    {
      "children": [
        8
      ],
      "matrix": [
        1,
        0,
        0,
        0,
        0,
        1,
        -2.2958450216584671e-49,
        0,
        0,
        2.2958450216584671e-49,
        1,
        0,
        -70.003669738769531,
        -5.9164567891575885e-31,
        0,
        1
      ],
      "name": "Group002"
    },
    {
      "children": [
        9
      ],
      "matrix": [
        -1.9943662754966767e-08,
        -0.12241332232951957,
        0,
        0,
        -1.9943662571493548e-08,
        3.2345649175120662e-15,
        0.12241332232951957,
        0,
        -0.11113396286964122,
        1.8106021727466041e-08,
        -1.8106021597913384e-08,
        0,
        3.814697265625e-06,
        -7.62939453125e-06,
        0,
        1
      ],
      "name": "Line001"
    },
    {
      "mesh": 1,
      "name": "Line001_08 - Default_0"
    },
    {
      "children": [
        11,
        13
      ],
      "matrix": [
        1,
        0,
        0,
        0,
        0,
        1,
        -2.2958450216584671e-49,
        0,
        0,
        2.2958450216584671e-49,
        1,
        0,
        -63.296581268310547,
        -9.8607613152626476e-31,
        16.429899215698242,
        1
      ],
      "name": "Group003"
    },
    {
      "children": [
        12
      ],
      "matrix": [
        0.99274476542024526,
        0.072606468290053933,
        -0.095845552383721763,
        -0,
        0.072942278585392734,
        -0.99733628351392312,
        1.2186433871473021e-16,
        -0,
        0.095590235610476013,
        0.0069911921497293576,
        0.99539633739875333,
        -0,
        -6.7070846557617188,
        3.944304526105059e-31,
        -16.429899215698242,
        1
      ],
      "name": "hinges001"
    },
    {
      "mesh": 2,
      "name": "hinges001_09 - Default_0"
    },
    {
      "children": [
        14
      ],
      "matrix": [
        0.99274477867550059,
        -0.072605988063047855,
        -0.095845778876865753,
        0,
        0.07294178893082795,
        0.99733619979802723,
        -1.1377777916869725e-09,
        0,
        0.095590453559074751,
        -0.0069911606098128978,
        0.9953961969294931,
        0,
        -6.7070846557617188,
        3.944304526105059e-31,
        -16.429899215698242,
        1
      ],
      "name": "hinges"
    },
    {
      "mesh": 3,
      "name": "hinges_09 - Default_0"
    },
    {
      "children": [
        16,
        18
      ],
      "matrix": [
        1,
        0,
        0,
        0,
        0,
        1,
        -2.2958450216584671e-49,
        0,
        0,
        2.2958450216584671e-49,
        1,
        0,
        4.34954833984375,
        -7.62939453125e-06,
        -2.7313461303710938,
        1
      ],
      "name": "Group004"
    },
    {
      "children": [
        17
      ],
      "matrix": [
        0.96437437898520917,
        -0.25969206968501135,
        0.050419104510168511,
        0,
        -0.079284994952498897,
        -0.10190272523823563,
        0.99162983222793533,
        0,
        -0.25238055933901549,
        -0.96029988208462047,
        -0.11886206180270387,
        0,
        -49.882789611816406,
        -1.0960477590560913,
        11.897702217102051,
        1
      ],
      "name": "Line002"
    },
    {
      "mesh": 4,
      "name": "Line002_08 - Default_0"
    },
    {
      "children": [
        19
      ],
      "matrix": [
        0.96532703170176337,
        0.25182247072975306,
        0.06876805866199498,
        -0,
        -0.08706698268762654,
        0.062246497071069218,
        0.99425585948892159,
        -0,
        -0.24609539631194741,
        0.96576948496551163,
        -0.082013648950830173,
        -0,
        -51.060577392578125,
        1.7970947027206421,
        9.231471061706543,
        1
      ],
      "name": "Line003"
    },
    {
      "mesh": 5,
      "name": "Line003_08 - Default_0"
    }
  ],
  "scene": 0,
  "scenes": [
    {
      "name": "OSG_Scene",
      "nodes": [
        0
      ]
    }
  ]
}

